<svg width="647" height="406" viewBox="0 0 647 406" fill="none" xmlns="http://www.w3.org/2000/svg">
<path d="M99.3904 281.48H94.8704C93.7304 281.48 92.8304 281.31 92.1604 280.98C91.4904 280.65 91.1604 280.29 91.1604 279.91C91.1604 279.5 91.4904 279.13 92.1604 278.79C92.8304 278.46 93.7104 278.29 94.8204 278.29C95.1704 278.29 95.5504 278.32 95.9604 278.39C96.3704 278.45 96.7503 278.52 97.1003 278.58L98.6703 275.06C98.0403 274.71 97.3604 274.46 96.6504 274.3C95.9404 274.14 95.2004 274.06 94.4404 274.06C93.2404 274.06 92.0903 274.28 91.0203 274.73C89.9403 275.17 89.0804 275.82 88.4304 276.66C87.7804 277.5 87.4604 278.49 87.4604 279.63C87.4604 280.32 87.5903 280.94 87.8403 281.48H86.3604V285.81H99.3904V281.48Z" fill="white"/>
<path d="M96.4903 291.42H89.2204V307.35H80.3803C79.1103 307.35 78.1504 307.24 77.5004 307.02C76.8504 306.8 76.4103 306.39 76.1703 305.81C75.9303 305.22 75.8103 304.42 75.8103 303.41V274.65H68.4903V305.93C68.4903 308.37 68.0904 310.44 67.3004 312.13C66.5104 313.83 65.3704 315.1 63.8804 315.96C62.3904 316.82 60.6104 317.24 58.5604 317.24C56.5104 317.24 54.7704 316.8 53.3804 315.93C51.9804 315.06 50.9404 313.78 50.2404 312.1C49.5404 310.42 49.1903 308.36 49.1903 305.92C49.1903 305 49.2404 304.05 49.3304 303.07C49.4304 302.09 49.5804 301.09 49.8104 300.07L42.7704 298.74C42.4804 299.91 42.2603 301.12 42.1003 302.35C41.9403 303.59 41.8604 304.84 41.8604 306.11C41.8604 309.18 42.3003 311.93 43.1903 314.36C44.0803 316.78 45.2904 318.84 46.8304 320.54C48.3704 322.23 50.1704 323.53 52.2304 324.41C54.2904 325.3 56.4804 325.74 58.7904 325.74C61.1004 325.74 63.3304 325.3 65.3704 324.41C67.4104 323.52 69.2204 322.22 70.7904 320.51C72.2904 318.87 73.4703 316.88 74.3503 314.57C76.0203 315.38 78.0204 315.81 80.3704 315.81H96.4903V291.42Z" fill="white"/>
<path d="M144.321 315.81L145.841 307.35H144.031V303.12C144.031 300.87 143.621 298.86 142.791 297.08C141.971 295.31 140.821 293.81 139.341 292.59C137.871 291.37 136.191 290.44 134.301 289.79C132.411 289.14 130.411 288.82 128.291 288.82C126.421 288.82 124.571 289.07 122.751 289.58C120.931 290.09 119.221 290.85 117.641 291.86L120.781 298.85C121.761 298.41 122.921 298.03 124.251 297.73C125.581 297.43 126.911 297.28 128.241 297.28C130.051 297.28 131.581 297.53 132.851 298.04C134.121 298.55 135.081 299.24 135.751 300.11C136.421 300.98 136.751 301.99 136.751 303.13V307.36H110.411V274.65H103.091V315.82H144.311L144.321 315.81Z" fill="white"/>
<path d="M171.561 283.34C172.571 283.34 173.401 283.02 174.031 282.37C174.661 281.72 174.981 280.9 174.981 279.92C174.981 278.94 174.661 278.08 174.031 277.45C173.401 276.82 172.571 276.5 171.561 276.5C170.551 276.5 169.761 276.82 169.111 277.45C168.461 278.08 168.141 278.91 168.141 279.92C168.141 280.93 168.461 281.72 169.111 282.37C169.761 283.02 170.581 283.34 171.561 283.34Z" fill="white"/>
<path d="M179.4 283.34C180.38 283.34 181.2 283.02 181.85 282.37C182.5 281.72 182.82 280.9 182.82 279.92C182.82 278.94 182.49 278.08 181.85 277.45C181.2 276.82 180.38 276.5 179.4 276.5C178.42 276.5 177.6 276.82 176.95 277.45C176.3 278.08 175.98 278.91 175.98 279.92C175.98 280.93 176.3 281.72 176.95 282.37C177.6 283.02 178.42 283.34 179.4 283.34Z" fill="white"/>
<path d="M207.88 285.57C208.89 285.57 209.72 285.25 210.35 284.6C210.98 283.95 211.3 283.13 211.3 282.15C211.3 281.17 210.98 280.31 210.35 279.68C209.72 279.05 208.89 278.73 207.88 278.73C206.87 278.73 206.08 279.05 205.43 279.68C204.78 280.31 204.46 281.14 204.46 282.15C204.46 283.16 204.78 283.95 205.43 284.6C206.08 285.25 206.9 285.57 207.88 285.57Z" fill="white"/>
<path d="M215.721 285.57C216.701 285.57 217.521 285.25 218.171 284.6C218.821 283.95 219.141 283.13 219.141 282.15C219.141 281.17 218.811 280.31 218.171 279.68C217.521 279.05 216.701 278.73 215.721 278.73C214.741 278.73 213.921 279.05 213.271 279.68C212.621 280.31 212.301 281.14 212.301 282.15C212.301 283.16 212.621 283.95 213.271 284.6C213.921 285.25 214.741 285.57 215.721 285.57Z" fill="white"/>
<path d="M286.371 285.91C287.611 285.91 288.611 285.51 289.391 284.72C290.171 283.93 290.551 282.93 290.551 281.72C290.551 280.51 290.161 279.48 289.391 278.7C288.611 277.92 287.611 277.53 286.371 277.53C285.131 277.53 284.171 277.92 283.371 278.7C282.581 279.48 282.181 280.48 282.181 281.72C282.181 282.96 282.581 283.92 283.371 284.72C284.161 285.51 285.161 285.91 286.371 285.91Z" fill="white"/>
<path d="M319.32 317.04C321.63 317.26 324.36 317.28 327.5 317.09C328.36 315.35 329.01 313.45 329.45 311.41C329.89 309.37 330.12 307.46 330.12 305.68C330.12 303.68 329.88 301.82 329.41 300.09C328.93 298.36 328.24 296.85 327.32 295.55C326.4 294.25 325.26 293.23 323.9 292.48C322.54 291.74 320.97 291.36 319.19 291.36C317.41 291.36 315.89 291.66 314.51 292.26C313.13 292.86 311.89 293.66 310.78 294.66C309.67 295.66 308.66 296.75 307.74 297.94C306.82 299.13 305.96 300.31 305.17 301.48C304.31 302.78 303.49 303.87 302.7 304.76C301.91 305.65 301.04 306.3 300.11 306.71C299.17 307.12 298.04 307.33 296.71 307.33H295C293.76 307.33 292.81 307.22 292.15 307C291.49 306.78 291.03 306.37 290.8 305.79C290.56 305.2 290.44 304.4 290.44 303.39V291.41H283.17V303.39C283.17 304.4 283.04 305.2 282.79 305.79C282.54 306.38 282.09 306.78 281.46 307C280.83 307.22 279.87 307.33 278.61 307.33H270.48V303.76C270.48 301.64 270.18 299.62 269.58 297.7C268.98 295.78 268.05 294.08 266.8 292.59C265.55 291.1 263.96 289.93 262.05 289.07C260.13 288.21 257.87 287.79 255.28 287.79C253.03 287.79 251.04 288.18 249.31 288.96C247.58 289.74 246.07 290.79 244.77 292.12C244.26 292.64 243.79 293.2 243.34 293.77V274.62H236.07V307.33H228.89C227.21 307.33 225.64 307.3 224.18 307.23C223.66 307.21 223.17 307.18 222.68 307.15C223.74 305.56 224.28 303.69 224.28 301.52C224.28 299.35 223.72 297.29 222.59 295.58C221.46 293.87 219.96 292.54 218.07 291.59C216.18 290.64 214.1 290.16 211.82 290.16C209.54 290.16 207.45 290.64 205.57 291.61C203.68 292.58 202.19 293.91 201.08 295.6C199.97 297.3 199.42 299.25 199.42 301.47C199.42 303.69 199.96 305.52 201.03 307.16C200.59 307.18 200.15 307.21 199.69 307.22C198.15 307.28 196.51 307.32 194.77 307.32H193.01C191.77 307.32 190.83 307.21 190.18 306.99C189.53 306.77 189.09 306.36 188.85 305.78C188.61 305.19 188.49 304.39 188.49 303.38V287.69H181.17V289.2C178.73 289.32 176.43 289.66 174.3 290.23C172 290.85 170 291.71 168.29 292.82C166.58 293.93 165.24 295.3 164.27 296.93C163.3 298.56 162.82 300.44 162.82 302.56C162.82 304.43 163.18 306.07 163.91 307.48C164.64 308.89 165.64 310.06 166.91 311C168.18 311.94 169.65 312.64 171.33 313.12C173.01 313.6 174.78 313.83 176.65 313.83C178.2 313.83 179.77 313.66 181.36 313.31C182.34 313.1 183.28 312.81 184.18 312.48C184.86 313.22 185.66 313.84 186.56 314.34C188.32 315.31 190.47 315.79 193 315.79H194.76C197.55 315.79 200.35 315.66 203.15 315.39C205.95 315.12 208.62 314.67 211.16 314.04C211.39 313.98 211.6 313.91 211.82 313.85C213.43 314.3 215.16 314.67 217.03 314.96C220.63 315.52 224.58 315.79 228.89 315.79H278.62C281.16 315.76 283.3 315.26 285.06 314.29C285.7 313.94 286.26 313.51 286.79 313.05C287.33 313.54 287.9 313.98 288.55 314.34C290.29 315.31 292.45 315.79 295.02 315.79H296.73C298.88 315.79 300.75 315.46 302.34 314.79C303.85 314.16 305.27 313.19 306.62 311.92C307.29 312.49 307.97 313.02 308.69 313.51C310.04 314.43 311.57 315.19 313.3 315.79C315.03 316.39 317.05 316.8 319.36 317.03L319.32 317.04ZM176.55 306.49C175.22 306.49 174.06 306.35 173.08 306.06C172.1 305.77 171.35 305.34 170.85 304.75C170.34 304.16 170.09 303.46 170.09 302.63C170.09 301.71 170.38 300.89 170.97 300.16C171.56 299.43 172.39 298.81 173.47 298.28C174.55 297.76 175.81 297.35 177.25 297.04C178.44 296.79 179.75 296.64 181.12 296.56V303.39C181.12 304.21 181.18 304.98 181.27 305.72C180.78 305.89 180.28 306.03 179.77 306.14C178.77 306.36 177.7 306.47 176.56 306.47L176.55 306.49ZM207.29 299.81C207.72 299.16 208.33 298.63 209.12 298.22C209.91 297.81 210.81 297.6 211.83 297.6C212.85 297.6 213.73 297.79 214.49 298.17C215.25 298.55 215.84 299.07 216.27 299.74C216.7 300.41 216.91 301.15 216.91 301.97C216.91 302.95 216.52 303.84 215.75 304.63C214.97 305.42 213.75 306.12 212.09 306.72C211.99 306.76 211.87 306.79 211.77 306.82C211.74 306.81 211.7 306.8 211.67 306.79C209.94 306.17 208.67 305.45 207.87 304.63C207.06 303.81 206.66 302.92 206.66 301.97C206.66 301.18 206.87 300.46 207.3 299.81H207.29ZM242.4 307.35C242.47 307.05 242.55 306.76 242.63 306.47C243.14 304.84 243.84 303.38 244.75 302.1C245.65 300.82 246.69 299.72 247.86 298.82C249.03 297.92 250.28 297.22 251.62 296.73C252.95 296.24 254.28 295.99 255.61 295.99C257.13 295.99 258.45 296.28 259.58 296.87C260.7 297.46 261.58 298.32 262.19 299.46C262.81 300.6 263.12 302.04 263.12 303.79V307.36H242.4V307.35ZM316.66 300.39C317.48 299.93 318.29 299.7 319.08 299.7C320.25 299.7 321.16 300.18 321.81 301.15C322.46 302.12 322.78 303.63 322.78 305.69C322.78 306.73 322.68 307.75 322.49 308.77C321.33 308.77 320.25 308.76 319.26 308.71C317.07 308.6 315.2 308.27 313.65 307.71C312.71 307.37 311.86 306.92 311.1 306.38C312.14 304.81 313.12 303.53 314.03 302.55C314.95 301.57 315.82 300.85 316.64 300.39H316.66Z" fill="white"/>
<path d="M364.621 315.81H379.071V291.42H371.801V307.35H359.111V291.42H351.791V316.76C351.791 317.74 351.601 318.56 351.221 319.21C350.841 319.86 350.201 320.34 349.291 320.66C348.391 320.98 347.131 321.15 345.511 321.18L346.891 329.26C349.391 329.13 351.561 328.55 353.381 327.52C355.201 326.49 356.611 325.06 357.611 323.22C358.611 321.38 359.111 319.23 359.111 316.75V315.8H364.631L364.621 315.81Z" fill="white"/>
<path d="M366.5 321.44C365.85 322.09 365.53 322.92 365.53 323.94C365.53 324.89 365.85 325.69 366.5 326.34C367.15 326.99 367.97 327.31 368.95 327.31C369.93 327.31 370.75 326.98 371.4 326.34C372.05 325.69 372.37 324.89 372.37 323.94C372.37 322.93 372.04 322.09 371.4 321.44C370.75 320.79 369.93 320.47 368.95 320.47C367.97 320.47 367.15 320.79 366.5 321.44Z" fill="white"/>
<path d="M374.351 321.44C373.701 322.09 373.381 322.92 373.381 323.94C373.381 324.89 373.701 325.69 374.351 326.34C375.001 326.99 375.821 327.31 376.801 327.31C377.781 327.31 378.601 326.98 379.251 326.34C379.901 325.69 380.221 324.89 380.221 323.94C380.221 322.93 379.891 322.09 379.251 321.44C378.611 320.79 377.781 320.47 376.801 320.47C375.821 320.47 375.001 320.79 374.351 321.44Z" fill="white"/>
<path d="M454.86 315.81H460.37H474.82V291.42H467.55V307.35H460.37H454.86V303.78C454.86 301.66 454.56 299.64 453.96 297.72C453.36 295.8 452.43 294.1 451.18 292.61C449.93 291.12 448.34 289.95 446.43 289.09C444.51 288.23 442.25 287.81 439.66 287.81C437.41 287.81 435.42 288.2 433.69 288.98C431.96 289.76 430.45 290.81 429.15 292.14C428.64 292.66 428.17 293.22 427.72 293.79V274.64H420.45V307.35H407.71V292.8C406.35 292.17 404.79 291.57 403.05 291.02C401.31 290.47 399.52 290.19 397.68 290.19C395.84 290.19 394.05 290.52 392.4 291.19C390.75 291.86 389.3 292.77 388.05 293.92C386.8 295.08 385.82 296.44 385.13 298.01C384.43 299.58 384.08 301.3 384.08 303.17C384.08 305.48 384.63 307.6 385.74 309.52C386.85 311.44 388.42 312.97 390.45 314.11C392.48 315.25 394.86 315.82 397.58 315.82H400.43V316.82C400.43 318.15 400 319.16 399.15 319.84C398.29 320.52 396.77 320.86 394.59 320.86H386.13V329.32H394.59C397.25 329.32 399.57 328.82 401.53 327.82C403.49 326.82 405.02 325.38 406.09 323.49C407.17 321.6 407.71 319.38 407.71 316.81V315.81H454.87H454.86ZM397.57 307.97C396.27 307.97 395.15 307.75 394.22 307.3C393.28 306.86 392.58 306.27 392.1 305.54C391.62 304.81 391.39 304.04 391.39 303.21C391.39 302.32 391.65 301.48 392.17 300.69C392.69 299.9 393.42 299.26 394.36 298.76C395.29 298.27 396.4 298.02 397.66 298.02C398.52 298.02 399.44 298.17 400.42 298.44V307.96H397.57V307.97ZM426.81 307.35C426.88 307.05 426.96 306.76 427.04 306.47C427.55 304.84 428.25 303.38 429.16 302.1C430.06 300.82 431.1 299.72 432.27 298.82C433.44 297.92 434.69 297.22 436.03 296.73C437.36 296.24 438.69 295.99 440.02 295.99C441.54 295.99 442.86 296.28 443.99 296.87C445.11 297.46 445.99 298.32 446.6 299.46C447.22 300.6 447.53 302.04 447.53 303.79V307.36H426.81V307.35Z" fill="white"/>
<path d="M475.16 286.76C476.14 286.76 476.96 286.44 477.61 285.79C478.26 285.14 478.58 284.32 478.58 283.34C478.58 282.36 478.25 281.5 477.61 280.87C476.96 280.24 476.14 279.92 475.16 279.92C474.18 279.92 473.36 280.24 472.71 280.87C472.06 281.5 471.74 282.33 471.74 283.34C471.74 284.35 472.07 285.14 472.71 285.79C473.36 286.44 474.18 286.76 475.16 286.76Z" fill="white"/>
<path d="M467.311 286.76C468.321 286.76 469.151 286.44 469.781 285.79C470.411 285.14 470.731 284.32 470.731 283.34C470.731 282.36 470.411 281.5 469.781 280.87C469.151 280.24 468.321 279.92 467.311 279.92C466.301 279.92 465.511 280.24 464.861 280.87C464.211 281.5 463.891 282.33 463.891 283.34C463.891 284.35 464.221 285.14 464.861 285.79C465.511 286.44 466.331 286.76 467.311 286.76Z" fill="white"/>
<path d="M509.29 283.34C510.27 283.34 511.09 283.02 511.74 282.37C512.39 281.72 512.71 280.9 512.71 279.92C512.71 278.94 512.38 278.08 511.74 277.45C511.09 276.82 510.27 276.5 509.29 276.5C508.31 276.5 507.49 276.82 506.84 277.45C506.19 278.08 505.87 278.91 505.87 279.92C505.87 280.93 506.19 281.72 506.84 282.37C507.49 283.02 508.31 283.34 509.29 283.34Z" fill="white"/>
<path d="M501.45 283.34C502.46 283.34 503.29 283.02 503.92 282.37C504.55 281.72 504.87 280.9 504.87 279.92C504.87 278.94 504.55 278.08 503.92 277.45C503.29 276.82 502.46 276.5 501.45 276.5C500.44 276.5 499.65 276.82 499 277.45C498.35 278.08 498.03 278.91 498.03 279.92C498.03 280.93 498.36 281.72 499 282.37C499.65 283.02 500.47 283.34 501.45 283.34Z" fill="white"/>
<path d="M541.531 281.48H537.011C535.871 281.48 534.971 281.31 534.301 280.98C533.631 280.65 533.301 280.29 533.301 279.91C533.301 279.5 533.631 279.13 534.301 278.79C534.971 278.46 535.851 278.29 536.961 278.29C537.311 278.29 537.691 278.32 538.101 278.39C538.511 278.45 538.891 278.52 539.241 278.58L540.811 275.06C540.181 274.71 539.501 274.46 538.791 274.3C538.081 274.14 537.341 274.06 536.581 274.06C535.371 274.06 534.231 274.28 533.161 274.73C532.081 275.17 531.221 275.82 530.571 276.66C529.921 277.5 529.601 278.49 529.601 279.63C529.601 280.32 529.731 280.94 529.991 281.48H528.511V285.81H541.541V281.48H541.531Z" fill="white"/>
<path d="M559.641 320.47C558.661 320.47 557.841 320.79 557.191 321.44C556.541 322.09 556.221 322.92 556.221 323.94C556.221 324.89 556.551 325.69 557.191 326.34C557.841 326.99 558.661 327.31 559.641 327.31C560.621 327.31 561.441 326.98 562.091 326.34C562.741 325.69 563.061 324.89 563.061 323.94C563.061 322.93 562.731 322.09 562.091 321.44C561.441 320.79 560.621 320.47 559.641 320.47Z" fill="white"/>
<path d="M555.221 323.94C555.221 322.93 554.891 322.09 554.251 321.44C553.601 320.79 552.781 320.47 551.801 320.47C550.821 320.47 550.001 320.79 549.351 321.44C548.701 322.09 548.381 322.92 548.381 323.94C548.381 324.89 548.701 325.69 549.351 326.34C550.001 326.99 550.811 327.31 551.801 327.31C552.791 327.31 553.601 326.98 554.251 326.34C554.901 325.69 555.221 324.89 555.221 323.94Z" fill="white"/>
<path d="M575.87 314.48C576.85 314.18 577.76 313.83 578.64 313.46C579.72 314 580.86 314.45 582.05 314.82C584.41 315.55 586.78 315.91 589.16 315.91C590.93 315.91 592.65 315.69 594.29 315.24C595.93 314.79 597.41 314.1 598.71 313.15C600.01 312.2 601.04 310.97 601.8 309.47C602.56 307.97 602.94 306.17 602.94 304.07C602.94 301 602.09 298.45 600.4 296.44C598.7 294.43 596.31 292.78 593.22 291.5C590.13 290.22 586.45 289.16 582.19 288.34C581.96 288.29 581.71 288.25 581.47 288.21C581.05 288.1 580.62 288.02 580.18 287.97C576.45 287.28 572.4 286.63 567.99 286.01L567.09 293.81C568.14 293.97 569.14 294.12 570.11 294.26C570.19 294.27 570.26 294.28 570.34 294.3C569.58 295.98 569.18 297.81 569.18 299.8C569.18 302.3 569.77 304.55 570.94 306.55C571.02 306.69 571.13 306.82 571.21 306.97C569.6 307.23 567.88 307.36 566.04 307.36H564.33C563.09 307.36 562.14 307.25 561.48 307.03C560.82 306.81 560.36 306.4 560.13 305.82C559.89 305.23 559.77 304.43 559.77 303.42V291.44H552.5V303.42C552.5 304.43 552.37 305.23 552.12 305.82C551.87 306.41 551.42 306.81 550.79 307.03C550.16 307.25 549.21 307.36 547.94 307.36H543.61C542.37 307.36 541.42 307.25 540.76 307.03C540.1 306.81 539.64 306.4 539.41 305.82C539.17 305.23 539.05 304.43 539.05 303.42V291.44H531.78V303.42C531.78 304.43 531.65 305.23 531.4 305.82C531.15 306.41 530.7 306.81 530.07 307.03C529.44 307.25 528.49 307.36 527.22 307.36H522.85C521.61 307.36 520.67 307.25 520.02 307.03C519.37 306.81 518.93 306.4 518.69 305.82C518.45 305.23 518.33 304.43 518.33 303.42V287.73H511.01V289.24C508.57 289.36 506.27 289.7 504.14 290.27C501.84 290.89 499.84 291.75 498.13 292.86C496.42 293.97 495.08 295.34 494.11 296.97C493.14 298.6 492.66 300.48 492.66 302.6C492.66 304.47 493.02 306.11 493.75 307.52C494.48 308.93 495.48 310.1 496.75 311.04C498.02 311.98 499.49 312.68 501.17 313.16C502.85 313.64 504.63 313.87 506.5 313.87C508.05 313.87 509.62 313.7 511.21 313.35C512.19 313.14 513.13 312.85 514.03 312.52C514.71 313.26 515.51 313.88 516.41 314.38C518.17 315.35 520.32 315.83 522.85 315.83H527.22C529.76 315.8 531.9 315.3 533.66 314.33C534.3 313.98 534.86 313.55 535.39 313.09C535.93 313.58 536.5 314.02 537.15 314.38C538.89 315.35 541.05 315.83 543.62 315.83H547.95C550.49 315.8 552.63 315.3 554.39 314.33C555.03 313.98 555.59 313.55 556.12 313.09C556.66 313.58 557.23 314.02 557.88 314.38C559.62 315.35 561.78 315.83 564.35 315.83H566.06C569.7 315.83 572.98 315.39 575.88 314.5L575.87 314.48ZM506.44 306.49C505.11 306.49 503.95 306.35 502.97 306.06C501.99 305.77 501.24 305.34 500.74 304.75C500.23 304.16 499.98 303.46 499.98 302.63C499.98 301.71 500.27 300.89 500.86 300.16C501.45 299.43 502.28 298.81 503.36 298.28C504.44 297.76 505.7 297.35 507.14 297.04C508.33 296.79 509.64 296.64 511.02 296.56V303.39C511.02 304.21 511.08 304.98 511.17 305.72C510.68 305.89 510.18 306.03 509.66 306.14C508.66 306.36 507.59 306.47 506.45 306.47L506.44 306.49ZM578.47 304.68C577.75 304.06 577.14 303.4 576.66 302.69C575.9 301.58 575.52 300.46 575.52 299.31C575.52 298.55 575.69 297.88 576.04 297.29C576.39 296.7 576.84 296.24 577.4 295.89C577.95 295.54 578.58 295.37 579.28 295.37C579.98 295.37 580.63 295.54 581.23 295.89C581.83 296.24 582.31 296.71 582.66 297.32C583.01 297.92 583.18 298.59 583.18 299.32C583.18 300.27 582.77 301.21 581.94 302.15C581.13 303.07 579.97 303.92 578.48 304.69L578.47 304.68ZM593.49 300.36C594.92 301.57 595.63 303.01 595.63 304.69C595.63 305.55 595.42 306.27 594.99 306.88C594.56 307.48 593.91 307.93 593.04 308.23C592.17 308.53 591.05 308.68 589.69 308.68C588.42 308.68 587.2 308.55 586.02 308.3C586.76 307.45 587.39 306.56 587.91 305.61C588.97 303.66 589.5 301.61 589.5 299.45C589.5 298.98 589.47 298.52 589.42 298.07C591.15 298.77 592.52 299.53 593.5 300.36H593.49Z" fill="white"/>
<path d="M56.8403 352.21H46.9503V343.04H42.0303V364.87H46.9503V356.17H56.8403V364.87H61.7603V343.04H56.8403V352.21Z" fill="white"/>
<path d="M78.9999 349.53C77.7699 348.47 76.0299 347.94 73.7599 347.94C72.7799 347.94 71.8799 348.02 71.0499 348.17C70.2199 348.33 69.4099 348.55 68.6199 348.84C67.8299 349.13 67.0199 349.5 66.1899 349.93L67.6899 353.05C68.5599 352.57 69.4299 352.2 70.2799 351.94C71.1299 351.68 71.9299 351.55 72.6799 351.55C73.8199 351.55 74.6899 351.81 75.2799 352.33C75.8699 352.85 76.1699 353.57 76.1699 354.48V354.79H71.5599C69.4999 354.81 67.9199 355.27 66.8199 356.16C65.7199 357.05 65.1699 358.28 65.1699 359.84C65.1699 360.84 65.3999 361.73 65.8699 362.52C66.3399 363.31 66.9999 363.93 67.8699 364.39C68.7299 364.85 69.7599 365.08 70.9399 365.08C72.4199 365.08 73.6599 364.79 74.6799 364.21C75.2899 363.86 75.7899 363.41 76.1999 362.87V364.87H80.9099L80.8799 353.93C80.8599 352.06 80.2399 350.59 79.0099 349.53H78.9999ZM75.5199 360.4C75.1599 360.81 74.6999 361.13 74.1499 361.37C73.5999 361.61 72.9699 361.73 72.2599 361.73C71.4499 361.73 70.8099 361.54 70.3399 361.15C69.8699 360.76 69.6399 360.24 69.6399 359.57C69.6399 358.9 69.8699 358.39 70.3299 358.07C70.7899 357.76 71.4699 357.6 72.3899 357.6H76.1699V359.03C76.0799 359.54 75.8699 360 75.5199 360.39V360.4Z" fill="white"/>
<path d="M89.8508 348.13H85.0508V364.87H89.8508V348.13Z" fill="white"/>
<path d="M87.4503 340.74C86.7203 340.74 86.1104 340.99 85.6104 341.49C85.1104 341.99 84.8604 342.61 84.8604 343.36C84.8604 344.11 85.1104 344.73 85.6104 345.23C86.1104 345.73 86.7203 345.98 87.4503 345.98C88.2203 345.98 88.8503 345.73 89.3403 345.23C89.8303 344.73 90.0704 344.11 90.0704 343.36C90.0704 342.61 89.8303 341.99 89.3403 341.49C88.8503 340.99 88.2203 340.74 87.4503 340.74Z" fill="white"/>
<path d="M99.4299 341.73H94.6299V364.86H99.4299V341.73Z" fill="white"/>
<path d="M128.86 356.47C130.42 355.07 131.2 353.11 131.2 350.59C131.2 348.07 130.42 346.34 128.86 345.02C127.3 343.7 125.09 343.04 122.22 343.04H112.74V364.87H117.67V358.57H122.22C122.36 358.57 122.5 358.57 122.64 358.56L126.15 364.87H131.73L127.03 357.65C127.72 357.33 128.33 356.94 128.86 356.46V356.47ZM117.67 347.01H122.22C123.59 347.01 124.65 347.32 125.4 347.94C126.15 348.56 126.52 349.5 126.52 350.75C126.52 352 126.15 353 125.4 353.63C124.65 354.26 123.59 354.58 122.22 354.58H117.67V347V347.01Z" fill="white"/>
<path d="M147.27 349.2C146.01 348.38 144.4 347.97 142.42 347.97C140.72 347.99 139.21 348.35 137.91 349.06C136.61 349.77 135.6 350.76 134.87 352.04C134.14 353.32 133.78 354.82 133.78 356.54C133.78 358.26 134.14 359.71 134.86 360.98C135.58 362.25 136.59 363.25 137.9 363.96C139.21 364.67 140.76 365.02 142.55 365.02C144.07 365.02 145.43 364.77 146.65 364.27C147.87 363.77 148.89 363.05 149.72 362.12L147.19 359.63C145.98 360.84 144.57 361.44 142.95 361.44C142.06 361.44 141.27 361.23 140.58 360.82C139.89 360.4 139.36 359.81 138.99 359.04C138.83 358.71 138.71 358.34 138.62 357.95H150.65C150.8 355.91 150.58 354.15 150.01 352.66C149.44 351.17 148.52 350.02 147.27 349.2ZM138.52 355.14C138.6 354.63 138.73 354.16 138.93 353.74C139.26 353.01 139.73 352.44 140.33 352.03C140.93 351.62 141.64 351.41 142.45 351.41C143.18 351.41 143.82 351.57 144.38 351.88C144.94 352.19 145.37 352.62 145.67 353.17C145.97 353.72 146.13 354.38 146.15 355.15H138.51L138.52 355.14Z" fill="white"/>
<path d="M164.78 350.41C164.34 349.81 163.83 349.3 163.22 348.9C162.22 348.26 161.02 347.94 159.6 347.96C158.19 347.96 156.93 348.3 155.84 348.97C154.75 349.65 153.9 350.57 153.3 351.74C152.7 352.91 152.4 354.3 152.4 355.9C152.4 357.5 152.71 358.91 153.34 360.12C153.96 361.34 154.82 362.28 155.91 362.96C157 363.64 158.27 363.97 159.73 363.97C161.19 363.97 162.31 363.65 163.28 363C163.86 362.62 164.36 362.12 164.78 361.53V363.4C164.78 364.19 164.6 364.88 164.23 365.47C163.87 366.06 163.35 366.52 162.67 366.84C161.99 367.16 161.2 367.32 160.28 367.32C159.36 367.32 158.41 367.17 157.54 366.87C156.67 366.57 155.85 366.15 155.08 365.61L153.3 368.85C154.28 369.49 155.38 370.02 156.62 370.42C157.86 370.82 159.18 371.03 160.6 371.03C162.41 371.03 163.98 370.71 165.31 370.08C166.64 369.45 167.68 368.55 168.43 367.38C169.18 366.22 169.55 364.84 169.55 363.26V348.08H164.78V350.37V350.41ZM164.28 358.37C163.95 359.05 163.48 359.57 162.89 359.94C162.3 360.32 161.62 360.5 160.85 360.5C160.08 360.5 159.37 360.31 158.78 359.94C158.19 359.57 157.73 359.04 157.41 358.37C157.09 357.7 156.92 356.92 156.9 356.05C156.92 355.16 157.09 354.37 157.41 353.7C157.73 353.03 158.19 352.5 158.8 352.13C159.4 351.76 160.09 351.57 160.86 351.57C161.63 351.57 162.31 351.76 162.9 352.13C163.49 352.5 163.95 353.03 164.29 353.7C164.62 354.38 164.79 355.16 164.79 356.05C164.79 356.94 164.62 357.7 164.29 358.37H164.28Z" fill="white"/>
<path d="M178.75 348.13H173.95V364.87H178.75V348.13Z" fill="white"/>
<path d="M176.351 340.74C175.621 340.74 175.011 340.99 174.511 341.49C174.011 341.99 173.761 342.61 173.761 343.36C173.761 344.11 174.011 344.73 174.511 345.23C175.011 345.73 175.621 345.98 176.351 345.98C177.121 345.98 177.751 345.73 178.241 345.23C178.731 344.73 178.971 344.11 178.971 343.36C178.971 342.61 178.731 341.99 178.241 341.49C177.751 340.99 177.121 340.74 176.351 340.74Z" fill="white"/>
<path d="M195.65 349.03C194.3 348.32 192.73 347.97 190.94 347.97C189.15 347.97 187.58 348.32 186.22 349.03C184.86 349.74 183.8 350.73 183.06 352.01C182.31 353.29 181.94 354.78 181.94 356.48C181.94 358.18 182.31 359.68 183.06 360.97C183.81 362.26 184.86 363.26 186.22 363.96C187.58 364.67 189.16 365.02 190.94 365.02C192.72 365.02 194.3 364.67 195.65 363.96C197 363.25 198.05 362.26 198.8 360.97C199.55 359.68 199.92 358.18 199.92 356.48C199.92 354.78 199.55 353.28 198.8 352.01C198.05 350.73 197 349.74 195.65 349.03ZM194.59 359.02C194.24 359.74 193.75 360.3 193.12 360.7C192.49 361.1 191.77 361.31 190.94 361.31C190.11 361.31 189.38 361.11 188.74 360.7C188.11 360.29 187.61 359.73 187.26 359.02C186.91 358.3 186.73 357.48 186.73 356.54C186.73 355.6 186.91 354.78 187.26 354.06C187.61 353.34 188.11 352.79 188.74 352.39C189.37 352 190.11 351.8 190.94 351.8C191.77 351.8 192.5 352 193.12 352.39C193.74 352.79 194.23 353.34 194.59 354.06C194.94 354.78 195.12 355.6 195.12 356.54C195.12 357.48 194.94 358.3 194.59 359.02Z" fill="white"/>
<path d="M216.961 348.73C216.031 348.2 214.951 347.93 213.701 347.93C212.271 347.93 211.021 348.25 209.971 348.88C209.121 349.39 208.431 350.13 207.901 351.07V348.12H203.101V364.86H207.901V356.6C207.901 355.33 208.241 354.28 208.931 353.45C209.621 352.62 210.551 352.19 211.741 352.17C212.761 352.17 213.561 352.48 214.161 353.1C214.751 353.72 215.051 354.59 215.051 355.69V364.86H219.851V354.35C219.851 353.04 219.601 351.91 219.101 350.95C218.601 349.99 217.891 349.25 216.961 348.72V348.73Z" fill="white"/>
<path d="M250.02 346.08C249 345.11 247.79 344.37 246.39 343.83C244.99 343.3 243.43 343.04 241.73 343.04H232.5V364.87H241.57C243.3 364.87 244.87 364.61 246.29 364.08C247.71 363.55 248.94 362.8 249.98 361.82C251.02 360.84 251.82 359.69 252.38 358.36C252.94 357.03 253.22 355.57 253.22 353.96C253.22 352.35 252.94 350.86 252.38 349.53C251.82 348.2 251.03 347.05 250.01 346.08H250.02ZM247.74 356.76C247.43 357.59 246.99 358.31 246.41 358.93C245.84 359.54 245.17 360.02 244.4 360.35C243.63 360.68 242.78 360.85 241.84 360.85H237.41V347.04H241.62C242.58 347.04 243.45 347.21 244.25 347.54C245.05 347.87 245.74 348.36 246.32 348.99C246.9 349.62 247.36 350.36 247.69 351.2C248.02 352.04 248.19 352.97 248.19 353.99C248.19 355.01 248.03 355.93 247.72 356.77L247.74 356.76Z" fill="white"/>
<path d="M268.43 349.2C267.17 348.38 265.56 347.97 263.58 347.97C261.88 347.99 260.37 348.35 259.07 349.06C257.77 349.77 256.76 350.76 256.03 352.04C255.3 353.32 254.94 354.82 254.94 356.54C254.94 358.26 255.3 359.71 256.02 360.98C256.74 362.25 257.75 363.25 259.06 363.96C260.37 364.67 261.92 365.02 263.71 365.02C265.23 365.02 266.59 364.77 267.81 364.27C269.03 363.77 270.05 363.05 270.88 362.12L268.35 359.63C267.14 360.84 265.73 361.44 264.11 361.44C263.22 361.44 262.43 361.23 261.74 360.82C261.05 360.4 260.52 359.81 260.15 359.04C259.99 358.71 259.87 358.34 259.78 357.95H271.81C271.96 355.91 271.74 354.15 271.17 352.66C270.6 351.17 269.68 350.02 268.43 349.2ZM259.68 355.14C259.76 354.63 259.89 354.16 260.09 353.74C260.42 353.01 260.89 352.44 261.49 352.03C262.09 351.62 262.8 351.41 263.61 351.41C264.34 351.41 264.98 351.57 265.54 351.88C266.1 352.19 266.53 352.62 266.83 353.17C267.13 353.72 267.29 354.38 267.31 355.15H259.67L259.68 355.14Z" fill="white"/>
<path d="M280.95 360.47L276.99 348.13H272.04L278.4 364.87H283.32L289.65 348.13H284.88L280.95 360.47Z" fill="white"/>
<path d="M303.261 349.2C302.001 348.38 300.391 347.97 298.411 347.97C296.711 347.99 295.201 348.35 293.901 349.06C292.601 349.77 291.591 350.76 290.861 352.04C290.131 353.32 289.771 354.82 289.771 356.54C289.771 358.26 290.131 359.71 290.851 360.98C291.571 362.25 292.581 363.25 293.891 363.96C295.201 364.67 296.751 365.02 298.541 365.02C300.061 365.02 301.421 364.77 302.641 364.27C303.861 363.77 304.881 363.05 305.711 362.12L303.181 359.63C301.971 360.84 300.561 361.44 298.941 361.44C298.051 361.44 297.261 361.23 296.571 360.82C295.881 360.4 295.351 359.81 294.981 359.04C294.821 358.71 294.701 358.34 294.611 357.95H306.641C306.791 355.91 306.571 354.15 306.001 352.66C305.431 351.17 304.511 350.02 303.261 349.2ZM294.511 355.14C294.591 354.63 294.721 354.16 294.921 353.74C295.251 353.01 295.721 352.44 296.321 352.03C296.921 351.62 297.631 351.41 298.441 351.41C299.171 351.41 299.811 351.57 300.371 351.88C300.931 352.19 301.361 352.62 301.661 353.17C301.961 353.72 302.121 354.38 302.141 355.15H294.501L294.511 355.14Z" fill="white"/>
<path d="M314.78 341.73H309.98V364.86H314.78V341.73Z" fill="white"/>
<path d="M331.87 349.03C330.52 348.32 328.95 347.97 327.16 347.97C325.37 347.97 323.8 348.32 322.44 349.03C321.08 349.74 320.02 350.73 319.28 352.01C318.53 353.29 318.16 354.78 318.16 356.48C318.16 358.18 318.53 359.68 319.28 360.97C320.03 362.26 321.08 363.26 322.44 363.96C323.8 364.67 325.38 365.02 327.16 365.02C328.94 365.02 330.52 364.67 331.87 363.96C333.22 363.25 334.27 362.26 335.02 360.97C335.77 359.68 336.14 358.18 336.14 356.48C336.14 354.78 335.77 353.28 335.02 352.01C334.27 350.73 333.22 349.74 331.87 349.03ZM330.81 359.02C330.46 359.74 329.97 360.3 329.34 360.7C328.71 361.1 327.99 361.31 327.16 361.31C326.33 361.31 325.6 361.11 324.96 360.7C324.33 360.29 323.83 359.73 323.48 359.02C323.13 358.3 322.95 357.48 322.95 356.54C322.95 355.6 323.13 354.78 323.48 354.06C323.83 353.34 324.33 352.79 324.96 352.39C325.59 352 326.33 351.8 327.16 351.8C327.99 351.8 328.72 352 329.34 352.39C329.96 352.79 330.45 353.34 330.81 354.06C331.16 354.78 331.34 355.6 331.34 356.54C331.34 357.48 331.16 358.3 330.81 359.02Z" fill="white"/>
<path d="M353.71 349.05C352.54 348.33 351.16 347.97 349.58 347.97C348.15 347.97 346.91 348.31 345.89 349C345.26 349.42 344.73 349.96 344.28 350.61V348.13H339.48V370.92H344.28V362.39C344.74 363.04 345.29 363.6 345.93 364.02C346.97 364.7 348.22 365.03 349.67 365.03C351.25 365.03 352.62 364.68 353.79 363.97C354.95 363.26 355.86 362.28 356.5 361.01C357.14 359.74 357.47 358.27 357.47 356.58C357.47 354.89 357.14 353.35 356.47 352.06C355.8 350.77 354.88 349.77 353.71 349.05ZM352.09 358.93C351.75 359.65 351.26 360.2 350.64 360.6C350.02 361 349.29 361.19 348.46 361.19C347.63 361.19 346.93 360.99 346.29 360.6C345.66 360.21 345.16 359.65 344.81 358.93C344.46 358.21 344.28 357.39 344.28 356.45C344.28 355.51 344.46 354.69 344.81 353.99C345.16 353.28 345.66 352.73 346.29 352.32C346.92 351.91 347.65 351.71 348.46 351.71C349.27 351.71 350.02 351.91 350.64 352.32C351.26 352.73 351.75 353.29 352.09 354C352.43 354.72 352.6 355.53 352.6 356.45C352.6 357.37 352.43 358.21 352.09 358.93Z" fill="white"/>
<path d="M386.07 348.73C385.17 348.2 384.09 347.93 382.84 347.93C381.43 347.93 380.21 348.25 379.18 348.88C378.15 349.51 377.36 350.47 376.79 351.75C376.79 351.76 376.79 351.78 376.78 351.79C376.68 351.5 376.57 351.22 376.44 350.96C375.95 350 375.25 349.26 374.35 348.73C373.45 348.2 372.37 347.93 371.12 347.93C369.71 347.93 368.49 348.25 367.46 348.88C366.64 349.39 365.97 350.11 365.45 351.03V348.12H360.65V364.86H365.45V356.6C365.45 355.33 365.78 354.28 366.45 353.45C367.12 352.62 368.03 352.18 369.19 352.14C370.19 352.14 370.97 352.46 371.54 353.09C372.11 353.72 372.4 354.59 372.4 355.69V364.86H377.17V356.6C377.17 355.33 377.5 354.28 378.17 353.45C378.84 352.62 379.74 352.18 380.88 352.14C381.88 352.14 382.67 352.46 383.25 353.09C383.83 353.72 384.12 354.59 384.12 355.69V364.86H388.89V354.35C388.89 353.04 388.65 351.91 388.16 350.95C387.67 349.99 386.98 349.25 386.07 348.72V348.73Z" fill="white"/>
<path d="M405.091 349.2C403.831 348.38 402.221 347.97 400.241 347.97C398.541 347.99 397.031 348.35 395.731 349.06C394.431 349.77 393.421 350.76 392.691 352.04C391.961 353.32 391.601 354.82 391.601 356.54C391.601 358.26 391.961 359.71 392.681 360.98C393.401 362.25 394.411 363.25 395.721 363.96C397.031 364.67 398.581 365.02 400.371 365.02C401.891 365.02 403.251 364.77 404.471 364.27C405.691 363.77 406.711 363.05 407.541 362.12L405.011 359.63C403.801 360.84 402.391 361.44 400.771 361.44C399.881 361.44 399.091 361.23 398.401 360.82C397.711 360.4 397.181 359.81 396.811 359.04C396.651 358.71 396.531 358.34 396.441 357.95H408.471C408.621 355.91 408.401 354.15 407.831 352.66C407.261 351.17 406.341 350.02 405.091 349.2ZM396.341 355.14C396.421 354.63 396.551 354.16 396.751 353.74C397.081 353.01 397.551 352.44 398.151 352.03C398.751 351.62 399.461 351.41 400.271 351.41C401.001 351.41 401.641 351.57 402.201 351.88C402.761 352.19 403.191 352.62 403.491 353.17C403.791 353.72 403.951 354.38 403.971 355.15H396.331L396.341 355.14Z" fill="white"/>
<path d="M425.51 348.73C424.58 348.2 423.5 347.93 422.25 347.93C420.82 347.93 419.57 348.25 418.52 348.88C417.67 349.39 416.98 350.13 416.45 351.07V348.12H411.65V364.86H416.45V356.6C416.45 355.33 416.79 354.28 417.48 353.45C418.17 352.62 419.1 352.19 420.29 352.17C421.31 352.17 422.11 352.48 422.71 353.1C423.3 353.72 423.6 354.59 423.6 355.69V364.86H428.4V354.35C428.4 353.04 428.15 351.91 427.65 350.95C427.15 349.99 426.44 349.25 425.51 348.72V348.73Z" fill="white"/>
<path d="M440.71 361C440.34 361.1 439.99 361.16 439.68 361.16C439.18 361.18 438.79 361.04 438.5 360.74C438.21 360.44 438.06 359.91 438.06 359.16V352.05H442.61V348.84H438.06V344.23H433.29V348.84H430.95V352.05H433.29V359.94C433.29 361.08 433.52 362.04 433.98 362.81C434.44 363.58 435.07 364.15 435.87 364.52C436.67 364.89 437.57 365.08 438.57 365.08C439.36 365.08 440.13 364.98 440.88 364.77C441.63 364.56 442.31 364.27 442.94 363.9L441.94 360.53C441.5 360.74 441.1 360.89 440.72 361H440.71Z" fill="white"/>
<path d="M461.35 343.04L451.84 364.87H456.95L458.7 360.5H468.71L470.45 364.87H475.69L466.4 343.04H461.35ZM460.24 356.66L463.72 347.96L467.19 356.66H460.24Z" fill="white"/>
<path d="M488.33 356.39C488.33 357.66 488 358.71 487.35 359.54C486.69 360.37 485.79 360.8 484.62 360.82C483.64 360.82 482.87 360.51 482.31 359.89C481.75 359.27 481.47 358.41 481.47 357.33V348.13H476.67V358.64C476.67 359.95 476.92 361.08 477.42 362.04C477.92 363 478.62 363.74 479.51 364.27C480.4 364.8 481.47 365.07 482.72 365.07C484.11 365.05 485.31 364.73 486.32 364.1C487.15 363.59 487.81 362.84 488.33 361.89V364.88H493.1V348.14H488.33V356.4V356.39Z" fill="white"/>
<path d="M505.91 361C505.54 361.1 505.19 361.16 504.88 361.16C504.38 361.18 503.99 361.04 503.7 360.74C503.41 360.44 503.26 359.91 503.26 359.16V352.05H507.81V348.84H503.26V344.23H498.49V348.84H496.15V352.05H498.49V359.94C498.49 361.08 498.72 362.04 499.18 362.81C499.64 363.58 500.27 364.15 501.07 364.52C501.87 364.89 502.77 365.08 503.77 365.08C504.56 365.08 505.33 364.98 506.08 364.77C506.83 364.56 507.51 364.27 508.14 363.9L507.14 360.53C506.7 360.74 506.3 360.89 505.92 361H505.91Z" fill="white"/>
<path d="M525.071 348.73C524.151 348.2 523.051 347.93 521.781 347.93C520.351 347.93 519.101 348.25 518.051 348.88C517.191 349.4 516.511 350.14 515.981 351.09V341.73H511.181V364.86H515.981V356.6C515.981 355.33 516.321 354.28 517.011 353.45C517.701 352.62 518.641 352.19 519.851 352.17C520.871 352.17 521.671 352.48 522.271 353.1C522.861 353.72 523.161 354.59 523.161 355.69V364.86H527.961V354.35C527.961 353.04 527.711 351.91 527.211 350.95C526.711 349.99 526.001 349.25 525.071 348.72V348.73Z" fill="white"/>
<path d="M544.351 349.03C543.001 348.32 541.431 347.97 539.641 347.97C537.851 347.97 536.281 348.32 534.921 349.03C533.561 349.74 532.501 350.73 531.751 352.01C531.001 353.29 530.631 354.78 530.631 356.48C530.631 358.18 531.001 359.68 531.751 360.97C532.501 362.26 533.551 363.26 534.921 363.96C536.281 364.67 537.861 365.02 539.641 365.02C541.421 365.02 543.001 364.67 544.351 363.96C545.701 363.25 546.751 362.26 547.501 360.97C548.251 359.68 548.621 358.18 548.621 356.48C548.621 354.78 548.251 353.28 547.501 352.01C546.751 350.73 545.701 349.74 544.351 349.03ZM543.291 359.02C542.941 359.74 542.451 360.3 541.821 360.7C541.201 361.11 540.471 361.31 539.641 361.31C538.811 361.31 538.081 361.11 537.441 360.7C536.801 360.29 536.311 359.73 535.961 359.02C535.611 358.3 535.431 357.48 535.431 356.54C535.431 355.6 535.611 354.78 535.961 354.06C536.311 353.34 536.811 352.79 537.441 352.39C538.071 352 538.811 351.8 539.641 351.8C540.471 351.8 541.201 352 541.821 352.39C542.441 352.79 542.931 353.34 543.291 354.06C543.641 354.78 543.821 355.6 543.821 356.54C543.821 357.48 543.641 358.3 543.291 359.02Z" fill="white"/>
<path d="M556.611 351.15V348.12H551.811V364.86H556.611V356.82C556.611 355.84 556.831 355 557.281 354.29C557.731 353.58 558.371 353.04 559.211 352.67C560.051 352.3 561.031 352.16 562.161 352.26V347.93C560.791 347.93 559.591 348.27 558.571 348.96C557.771 349.5 557.121 350.23 556.611 351.15Z" fill="white"/>
<path d="M567.181 340.74C566.451 340.74 565.841 340.99 565.341 341.49C564.841 341.99 564.591 342.61 564.591 343.36C564.591 344.11 564.841 344.73 565.341 345.23C565.841 345.73 566.451 345.98 567.181 345.98C567.951 345.98 568.581 345.73 569.071 345.23C569.561 344.73 569.801 344.11 569.801 343.36C569.801 342.61 569.561 341.99 569.071 341.49C568.581 340.99 567.951 340.74 567.181 340.74Z" fill="white"/>
<path d="M569.58 348.13H564.78V364.87H569.58V348.13Z" fill="white"/>
<path d="M582.361 361C581.991 361.1 581.641 361.16 581.331 361.16C580.831 361.18 580.441 361.04 580.151 360.74C579.861 360.44 579.711 359.91 579.711 359.16V352.05H584.261V348.84H579.711V344.23H574.941V348.84H572.601V352.05H574.941V359.94C574.941 361.08 575.171 362.04 575.631 362.81C576.091 363.58 576.721 364.15 577.521 364.52C578.321 364.89 579.221 365.08 580.221 365.08C581.011 365.08 581.781 364.98 582.531 364.77C583.281 364.56 583.961 364.27 584.591 363.9L583.591 360.53C583.151 360.74 582.751 360.89 582.371 361H582.361Z" fill="white"/>
<path d="M598.171 348.13L594.211 359.85L589.811 348.13H584.851L591.801 364.53L591.331 365.53C591.101 366.05 590.801 366.44 590.431 366.7C590.061 366.96 589.621 367.09 589.121 367.09C588.391 367.09 587.661 366.8 586.941 366.22L584.911 369.56C585.601 370.1 586.311 370.5 587.051 370.76C587.791 371.02 588.591 371.15 589.471 371.15C590.931 371.15 592.161 370.79 593.181 370.06C594.201 369.33 595.011 368.25 595.611 366.82L602.971 348.14H598.171V348.13Z" fill="white"/>
<path d="M249.03 60.1199C250.84 74.1199 261.53 99.1499 283.08 105.78C281.12 110.31 270.24 120.61 260.49 120.24C231.57 105.22 239.33 75.5499 249.03 60.1099V60.1199Z" fill="white"/>
<path d="M212.471 135.96C223.691 144.54 248.981 154.59 268.871 143.97C270.701 148.55 270.351 163.53 263.211 170.19C232.181 180.13 216.591 153.71 212.471 135.96Z" fill="white"/>
<path d="M238.53 216.48C252.58 215.11 277.94 205.22 285.25 183.89C289.71 186 299.67 197.2 298.99 206.93C283.06 235.36 253.65 226.66 238.53 216.48Z" fill="white"/>
<path d="M320.701 254.16C327.681 241.88 334.201 215.46 320.981 197.2C325.271 194.77 340.161 193.08 347.731 199.24C361.791 228.64 337.731 247.67 320.701 254.16Z" fill="white"/>
<path d="M398.56 224.18C396.04 210.29 384.09 185.83 362.23 180.3C363.96 175.68 374.3 164.84 384.06 164.71C413.7 178.24 407.46 208.27 398.56 224.18Z" fill="white"/>
<path d="M432.371 146.65C420.121 139.63 393.721 133.01 375.411 146.16C372.991 141.86 371.361 126.96 377.551 119.42C407.001 105.47 425.941 129.59 432.371 146.65Z" fill="white"/>
<path d="M406.021 70.4102C392.161 73.1302 367.881 85.4102 362.651 107.34C358.011 105.67 347.021 95.4802 346.761 85.7302C359.881 55.9002 389.991 61.7302 406.021 70.4102Z" fill="white"/>
<path d="M326.751 33.75C319.211 45.69 311.471 71.78 323.841 90.64C319.441 92.87 304.491 93.87 297.221 87.36C284.531 57.34 309.441 39.45 326.761 33.75H326.751Z" fill="white"/>
<path d="M382.391 198.71C382.401 198.87 382.421 199.03 382.431 199.19C382.461 199.62 382.471 200.05 382.471 200.48C382.471 200.58 382.471 200.67 382.471 200.77C382.471 201.3 382.441 201.84 382.401 202.37C382.401 202.5 382.381 202.63 382.361 202.76C382.321 203.18 382.281 203.6 382.221 204.01C382.201 204.17 382.181 204.33 382.151 204.49C382.081 204.93 382.011 205.37 381.921 205.81C381.901 205.91 381.881 206.02 381.861 206.12C381.751 206.67 381.621 207.21 381.471 207.75C380.181 212.65 377.771 217.41 374.971 221.21C379.661 223.23 390.711 225.01 394.431 225.23C393.091 217.86 389.091 207.5 382.351 198.6C382.351 198.63 382.351 198.65 382.351 198.68L382.391 198.71Z" fill="white"/>
<path d="M403.601 142.57C403.601 142.57 403.651 142.6 403.671 142.62C403.801 142.71 403.931 142.81 404.061 142.9C404.411 143.16 404.751 143.42 405.081 143.7C405.161 143.76 405.231 143.82 405.311 143.88C405.711 144.23 406.111 144.59 406.491 144.96C406.581 145.05 406.681 145.15 406.771 145.24C407.061 145.54 407.351 145.84 407.641 146.15C407.751 146.27 407.861 146.39 407.971 146.52C408.261 146.85 408.551 147.19 408.831 147.54C408.901 147.62 408.971 147.71 409.031 147.79C409.371 148.23 409.711 148.68 410.031 149.14C412.951 153.28 415.031 158.2 416.141 162.78C420.711 160.5 429.191 153.19 431.751 150.48C425.251 146.75 414.751 143.14 403.601 142.56V142.57Z" fill="white"/>
<path d="M380.681 86.9798C380.681 86.9798 380.731 86.9798 380.751 86.9798C380.921 86.9598 381.081 86.9498 381.251 86.9298C381.671 86.8998 382.091 86.8798 382.521 86.8698C382.631 86.8698 382.731 86.8698 382.831 86.8598C383.361 86.8598 383.891 86.8698 384.421 86.8998C384.561 86.8998 384.701 86.9198 384.841 86.9298C385.251 86.9598 385.661 86.9998 386.071 87.0498C386.241 87.0698 386.411 87.0898 386.581 87.1098C387.011 87.1698 387.441 87.2398 387.871 87.3198C387.991 87.3398 388.101 87.3598 388.221 87.3798C388.761 87.4898 389.301 87.6098 389.841 87.7398C394.761 88.9598 399.561 91.3098 403.401 94.0498C405.361 89.3298 406.981 78.2598 407.151 74.5298C399.801 75.9698 389.501 80.1198 380.691 86.9798H380.681Z" fill="white"/>
<path d="M320.751 62.4698C320.851 62.3398 320.951 62.2098 321.051 62.0898C321.321 61.7598 321.601 61.4298 321.891 61.1098C321.961 61.0398 322.021 60.9598 322.081 60.8898C322.441 60.4998 322.821 60.1198 323.211 59.7498C323.311 59.6598 323.411 59.5698 323.501 59.4798C323.811 59.1998 324.121 58.9198 324.451 58.6498C324.581 58.5398 324.701 58.4398 324.831 58.3398C325.171 58.0698 325.521 57.7998 325.881 57.5398C325.971 57.4698 326.061 57.3998 326.151 57.3398C326.601 57.0198 327.061 56.7098 327.531 56.4098C331.791 53.6698 336.801 51.7898 341.431 50.8798C339.341 46.2198 332.411 37.4298 329.811 34.7598C325.811 41.0998 321.751 51.4298 320.701 62.5498C320.721 62.5298 320.731 62.5098 320.751 62.4798V62.4698Z" fill="white"/>
<path d="M263.091 86.5201C263.091 86.3501 263.081 86.1901 263.081 86.0201C263.081 85.6001 263.081 85.1701 263.101 84.7501C263.101 84.6501 263.101 84.5401 263.111 84.4401C263.141 83.9101 263.191 83.3801 263.261 82.8501C263.281 82.7101 263.301 82.5801 263.321 82.4401C263.381 82.0301 263.441 81.6301 263.521 81.2201C263.551 81.0501 263.581 80.8901 263.621 80.7201C263.711 80.3001 263.801 79.8701 263.911 79.4501C263.941 79.3401 263.961 79.2201 263.991 79.1101C264.131 78.5801 264.281 78.0501 264.451 77.5201C265.981 72.6901 268.641 68.0501 271.621 64.3901C267.041 62.1301 256.091 59.7901 252.391 59.3901C253.351 66.8201 256.821 77.3701 263.101 86.6001C263.101 86.5801 263.101 86.5501 263.101 86.5301L263.091 86.5201Z" fill="white"/>
<path d="M240.151 144.81C240.031 144.7 239.921 144.59 239.801 144.48C239.491 144.18 239.191 143.87 238.891 143.55C238.821 143.48 238.761 143.41 238.691 143.34C238.341 142.94 237.991 142.53 237.661 142.11C237.581 142.01 237.501 141.9 237.421 141.79C237.171 141.46 236.921 141.12 236.681 140.77C236.591 140.63 236.491 140.5 236.401 140.36C236.161 139.99 235.921 139.62 235.691 139.24C235.631 139.14 235.571 139.05 235.521 138.96C235.241 138.48 234.971 138 234.711 137.5C232.371 133.01 230.951 127.86 230.451 123.17C225.621 124.83 216.251 130.95 213.351 133.29C219.301 137.84 229.231 142.81 240.211 144.86C240.191 144.84 240.171 144.82 240.151 144.8V144.81Z" fill="white"/>
<path d="M266.111 203.68C265.951 203.68 265.791 203.68 265.631 203.68C265.201 203.68 264.771 203.65 264.341 203.62C264.241 203.62 264.141 203.61 264.041 203.6C263.511 203.55 262.981 203.49 262.451 203.4C262.321 203.38 262.191 203.35 262.061 203.33C261.651 203.26 261.241 203.18 260.831 203.09C260.671 203.05 260.511 203.02 260.351 202.98C259.921 202.88 259.491 202.76 259.061 202.64C258.961 202.61 258.861 202.59 258.751 202.56C258.221 202.4 257.691 202.23 257.161 202.04C252.381 200.35 247.831 197.55 244.271 194.46C241.871 198.97 239.181 209.84 238.661 213.53C246.121 212.8 256.771 209.67 266.201 203.68C266.171 203.68 266.151 203.68 266.121 203.68H266.111Z" fill="white"/>
<path d="M325.001 226.21C324.911 226.34 324.821 226.47 324.721 226.6C324.471 226.95 324.201 227.29 323.921 227.63C323.861 227.7 323.801 227.78 323.741 227.85C323.401 228.26 323.031 228.65 322.661 229.04C322.571 229.13 322.481 229.22 322.391 229.31C322.091 229.61 321.791 229.9 321.481 230.19C321.361 230.3 321.241 230.41 321.121 230.52C320.781 230.82 320.441 231.11 320.091 231.39C320.011 231.45 319.931 231.52 319.851 231.58C319.411 231.93 318.961 232.26 318.501 232.59C314.371 235.52 309.461 237.63 304.881 238.75C307.181 243.31 314.521 251.77 317.231 254.32C320.931 247.81 324.511 237.29 325.051 226.14C325.031 226.16 325.021 226.19 325.001 226.21Z" fill="white"/>
<path d="M323.891 168.99C326.821 171.7 329.491 174.34 331.941 176.59C332.951 177.51 333.921 178.37 334.851 179.14C336.291 180.33 337.641 181.31 338.911 181.99C341.391 183.31 343.531 183.49 345.381 181.89C345.481 181.8 345.581 181.72 345.681 181.62C346.111 181.2 346.611 179.81 346.361 178.7C346.221 178.06 345.881 177.48 345.411 177.04C344.981 176.62 344.431 176.32 343.841 176.18C342.411 175.86 341.101 176.45 340.341 177.48C339.921 177.26 339.451 176.97 338.951 176.62C337.791 175.81 336.431 174.67 334.891 173.31C333.981 172.5 333.001 171.61 331.981 170.67C329.991 168.84 327.801 166.81 325.481 164.76C327.561 163.05 329.751 161.39 332.051 159.86C333.011 159.22 333.991 158.6 334.981 158.02C336.311 157.24 337.671 156.52 339.071 155.86C341.161 154.88 343.321 154.05 345.561 153.42C350.201 152.13 355.181 151.7 360.521 152.58C362.261 152.87 364.031 153.28 365.841 153.87C365.981 153.91 366.081 153.73 365.951 153.65C364.941 153.06 363.081 152.1 360.531 151.27C356.841 150.07 351.691 149.16 345.581 150.09C343.521 150.4 341.361 150.93 339.101 151.72C338.881 151.8 338.671 151.87 338.451 151.94C337.301 152.36 336.161 152.88 335.011 153.44C334.031 153.93 333.051 154.47 332.081 155.04C329.861 156.35 327.671 157.86 325.531 159.48C323.211 144.88 324.461 131.34 325.061 124.69C325.061 124.65 325.111 124.63 325.141 124.66C330.291 127.94 328.791 137.02 327.691 139.61C327.671 139.66 327.741 139.7 327.781 139.65C334.261 132.08 331.171 123.67 329.861 121.54C329.831 121.49 329.901 121.44 329.941 121.48C330.871 122.24 331.621 123.05 332.261 123.87C334.241 126.42 334.951 129.18 335.141 131.6C335.241 132.88 335.201 134.07 335.121 135.09C335.101 135.36 335.081 135.62 335.051 135.86C335.051 135.9 335.081 135.91 335.111 135.9C335.121 135.9 335.141 135.9 335.141 135.88C336.901 132.48 337.761 127.33 335.191 122.3C334.491 120.94 333.541 119.59 332.291 118.28C331.931 117.91 331.551 117.53 331.131 117.16C331.091 117.13 331.131 117.06 331.171 117.07C331.561 117.16 331.931 117.28 332.291 117.41C333.391 117.8 334.361 118.33 335.201 118.96C337.151 120.41 338.461 122.4 339.241 124.47C339.891 126.17 340.181 127.94 340.161 129.49C340.161 129.55 340.241 129.56 340.261 129.49C341.501 125.05 340.791 121.69 339.281 119.22C338.201 117.46 336.721 116.16 335.231 115.26C334.211 114.64 333.201 114.21 332.311 113.94C331.791 113.78 331.321 113.67 330.911 113.62C330.851 113.62 330.861 113.53 330.921 113.52C331.401 113.48 331.861 113.46 332.311 113.45C333.391 113.43 334.361 113.54 335.231 113.7C336.951 114.03 338.291 114.65 339.301 115.34C340.931 116.46 341.741 117.75 342.021 118.28C342.041 118.33 342.121 118.3 342.121 118.24C341.901 115.89 340.831 114.05 339.321 112.72C338.161 111.7 336.741 110.97 335.261 110.55C334.291 110.28 333.301 110.13 332.341 110.11C331.031 110.09 329.771 110.3 328.681 110.74C328.641 110.76 328.591 110.71 328.621 110.66C329.581 109.31 330.931 108.48 332.351 108.06C333.331 107.77 334.341 107.67 335.281 107.73C336.181 107.79 337.011 107.99 337.671 108.31C337.721 108.33 337.761 108.27 337.731 108.23C337.001 107.39 336.171 106.72 335.291 106.23C334.361 105.71 333.371 105.38 332.371 105.26C329.761 104.95 327.101 106.04 325.311 108.71C325.291 108.74 325.241 108.74 325.221 108.71C324.881 108.1 324.561 107.43 324.261 106.72C323.561 105.08 322.991 103.23 322.701 101.4C322.701 101.34 322.621 101.34 322.611 101.4C322.291 103.23 321.691 105.09 320.971 106.73C320.661 107.43 320.331 108.09 319.991 108.68C319.971 108.71 319.931 108.71 319.911 108.68C316.851 103.98 311.051 104.04 307.501 108.06C307.461 108.1 307.501 108.16 307.551 108.14C309.911 107.04 314.351 107.39 316.561 110.6C316.591 110.64 316.551 110.7 316.501 110.68C313.071 109.21 307.751 110.13 304.901 113.48C303.881 114.68 303.171 116.19 302.981 118.01C302.981 118.07 303.051 118.1 303.081 118.05C303.301 117.64 303.861 116.75 304.891 115.86C306.551 114.41 309.461 112.94 314.231 113.42C314.291 113.42 314.301 113.52 314.241 113.52C311.791 113.81 306.751 115.96 304.861 120.93C304.021 123.13 303.801 125.88 304.701 129.28C304.721 129.34 304.801 129.33 304.801 129.28C304.801 129.21 304.801 129.13 304.811 129.05C304.891 124.52 307.521 118.46 313.941 116.95C313.991 116.94 314.031 117.01 313.991 117.04C306.771 123.31 307.441 131.1 309.751 135.71C309.771 135.76 309.851 135.74 309.851 135.69C309.561 132.22 309.341 126.01 315.131 121.37C315.171 121.34 315.241 121.38 315.211 121.43C313.881 123.55 310.681 131.93 317.081 139.57C317.121 139.61 317.191 139.58 317.171 139.53C316.101 136.93 314.711 127.83 319.891 124.61C319.921 124.59 319.971 124.61 319.971 124.64C320.491 131.3 321.591 144.84 319.091 159.42C314.951 156.22 310.591 153.39 306.261 151.72C305.731 151.52 305.201 151.33 304.681 151.16C300.211 149.66 296.111 149.22 292.531 149.36C286.781 149.58 282.381 151.27 279.961 152.46C279.471 152.7 279.061 152.92 278.741 153.11C278.611 153.18 278.701 153.37 278.841 153.33C279.221 153.21 279.591 153.11 279.961 153.01C284.391 151.79 288.571 151.48 292.521 151.85C296.841 152.25 300.881 153.46 304.661 155.19C309.961 157.62 314.761 161.06 319.081 164.7C312.911 170.01 307.691 175.18 304.531 176.99C304.371 177.08 304.211 177.17 304.071 177.24C303.321 176.2 302.021 175.6 300.581 175.9C299.341 176.17 298.311 177.16 298.031 178.39C297.771 179.49 298.051 180.69 298.671 181.31C300.341 182.99 302.271 183.12 304.501 182.19C308.761 180.43 314.081 174.84 320.601 168.94C321.141 168.45 321.691 167.95 322.261 167.46C322.811 167.96 323.361 168.46 323.891 168.95V168.99Z" fill="white"/>
</svg>
